<svg xmlns="http://www.w3.org/2000/svg" width="72" height="54" viewBox="0 0 72 54"><defs><style>.a{fill:#ca8659;opacity:0.2;}</style></defs><path class="a" d="M39,38.175C39,22.752,50.676,6.618,69,3l2.952,6.378C65.307,11.883,59.463,20.6,58.812,26.616A15.639,15.639,0,0,1,72,42.063C72,51.609,64.248,57,56.4,57,47.358,57,39,50.085,39,38.175Zm-39,0C0,22.752,11.676,6.618,30,3l2.952,6.378C26.307,11.883,20.463,20.6,19.812,26.616A15.639,15.639,0,0,1,33,42.063C33,51.609,25.248,57,17.4,57,8.358,57,0,50.085,0,38.175Z" transform="translate(0 -3)"/></svg>