<svg xmlns="http://www.w3.org/2000/svg" width="44" height="44" viewBox="0 0 44 44"><defs><style>.a{fill:#fff;}</style></defs><path class="a" d="M27.443,13.836l.057.35a1.112,1.112,0,0,1-.484.909c-.986.682-.856.51-1.228,1.623a1.162,1.162,0,0,1-1.109.777h0c-1.217,0-1.007-.07-1.986.62a1.2,1.2,0,0,1-1.379,0c-.979-.689-.768-.623-1.986-.62h0a1.162,1.162,0,0,1-1.109-.777c-.374-1.113-.244-.942-1.226-1.624a1.109,1.109,0,0,1-.486-.909l.057-.348c.379-1.107.381-.895,0-2.006l-.057-.35a1.114,1.114,0,0,1,.486-.911c.983-.682.853-.508,1.226-1.622a1.162,1.162,0,0,1,1.109-.777h0c1.214,0,1,.075,1.986-.62a1.2,1.2,0,0,1,1.379,0c.979.689.768.623,1.986.62h0a1.162,1.162,0,0,1,1.109.777c.372,1.113.242.941,1.228,1.622a1.117,1.117,0,0,1,.484.911l-.057.35c-.379,1.107-.381.895,0,2.006Zm-2.693-2.2-.852-.851L21.313,13.44,20.1,12.291l-.853.851,2.063,2Zm4.583,8.527H14.667V22H29.333ZM27.5,23.833h-11v1.833h11ZM29.333,27.5H14.667v1.833H29.333ZM15.087,34.833c-1.412,6.34-5.92,6.417-5.92,2.521V9.244c0-2.444-.114-4.374-1.833-5.577H31.167c2.482,0,3.667,1.146,3.667,3.667V31.167H38.5V7.333C38.5,3.628,36.953,0,31.167,0h-22A9.032,9.032,0,0,0,0,9.167H5.5V38.5A5.5,5.5,0,0,0,11,44H36.667c4.928-.973,7.1-5.386,7.333-9.167Z"/></svg>