<svg xmlns="http://www.w3.org/2000/svg" width="22.76" height="24" viewBox="0 0 22.76 24"><defs><style>.a{fill:#665cac;fill-rule:evenodd;}</style></defs><path class="a" d="M12.892,13.745a.824.824,0,0,0,.656-.247L14,12.935a.986.986,0,0,1,1.249-.174A12.386,12.386,0,0,1,17.394,14.3a.857.857,0,0,1,.182,1.121l0,.009a4.709,4.709,0,0,1-.932,1.148l-.009.006a1.54,1.54,0,0,1-1.487.4l-.01-.014a18.073,18.073,0,0,1-4.79-2.649A15.2,15.2,0,0,1,5.709,7.549l-.015-.01a1.545,1.545,0,0,1,.4-1.488L6.1,6.043a4.668,4.668,0,0,1,1.148-.932l.009,0a.856.856,0,0,1,1.121.182A12.491,12.491,0,0,1,9.923,7.44.986.986,0,0,1,9.75,8.688l-.564.448a.831.831,0,0,0-.247.657,5.867,5.867,0,0,0,3.953,3.952ZM17.8,11.129a.3.3,0,0,1-.3-.3,5.866,5.866,0,0,0-1.634-4.332A5.623,5.623,0,0,0,11.834,4.9a.3.3,0,0,1,0-.607h0A6.214,6.214,0,0,1,16.285,6.06,6.452,6.452,0,0,1,18.1,10.823a.3.3,0,0,1-.3.306h0ZM16.2,10.505H16.2a.3.3,0,0,1-.3-.31,3.5,3.5,0,0,0-.906-2.569,3.768,3.768,0,0,0-2.645-1.149.3.3,0,0,1,.044-.606,4.406,4.406,0,0,1,3.049,1.345,4.134,4.134,0,0,1,1.065,2.992A.3.3,0,0,1,16.2,10.505Zm-1.558-.522a.3.3,0,0,1-.3-.289,1.449,1.449,0,0,0-1.527-1.588.3.3,0,0,1,.032-.606,2.038,2.038,0,0,1,2.1,2.164.3.3,0,0,1-.288.318h-.015Zm6.817,3.469c-.6,4.877-4.172,5.185-4.83,5.4a20.06,20.06,0,0,1-6.152.524s-2.438,2.94-3.2,3.7a.414.414,0,0,1-.352.145c-.131-.032-.167-.188-.165-.414l.02-4.016h0c-4.762-1.323-4.485-6.3-4.431-8.9s.543-4.736,2-6.17c2.61-2.364,7.987-2.011,7.987-2.011,4.541.02,6.717,1.387,7.222,1.845,1.675,1.434,2.528,4.867,1.9,9.9ZM20.811,2.339c-.6-.548-3.007-2.3-8.375-2.322,0,0-6.33-.382-9.416,2.45C1.3,4.185.7,6.7.634,9.815S.488,18.773,6.118,20.357l.006,0,0,2.416s-.035.979.609,1.179c.779.241,1.236-.5,1.981-1.3.408-.44.971-1.086,1.4-1.58a21.786,21.786,0,0,0,7.149-.526c.777-.253,5.177-.816,5.893-6.657.738-6.022-.358-9.83-2.338-11.548Z" transform="translate(-0.62)"/></svg>